# xmcd
#
# Track frame offsets:
#	150
#	18513
#	30806
#	46209
#	63370
#	76062
#	91579
#	108902
#	127358
#	142377
#
# Disc length: 2158 seconds
#
# Revision: 0
# Processed by: cddbd v1.4PL0 Copyright (c) Steve Scherf et al.
# Submitted via: OrangeCD 4.1
#
DISCID=7a086c0a
DTITLE=Don Francisco - High Praise
DYEAR=1900
DGENRE=
TTITLE0=Worship the King
TTITLE1=I Will Rejoice
TTITLE2=Speak Peace to My Heart
TTITLE3=Come, Holy Spirit
TTITLE4=I Will Praise You
TTITLE5=Help Me to Worship
TTITLE6=To God
TTITLE7=Through All My Days
TTITLE8=Lord of Your Church
TTITLE9=No Better Place
EXTD=
EXTT0=
EXTT1=
EXTT2=
EXTT3=
EXTT4=
EXTT5=
EXTT6=
EXTT7=
EXTT8=
EXTT9=
PLAYORDER=
